<svg width="138" height="38" viewBox="0 0 138 38" fill="none" xmlns="http://www.w3.org/2000/svg">
<path d="M0 28.3694V26.1341H6.6641V28.3694C6.6641 29.3025 6.94961 30.0685 7.52062 30.6674C8.10555 31.2663 9.01778 31.5657 10.2573 31.5657C12.6249 31.5657 13.8087 30.4167 13.8087 28.1187V0L20.7444 5.76581V28.5366C20.7444 31.2941 19.7973 33.5642 17.9032 35.3469C16.0092 37.1156 13.4953 38 10.3617 38C7.00531 38 4.43577 37.1156 2.65311 35.3469C0.884369 33.5642 0 31.2384 0 28.3694Z" fill="#1C1B1F"/>
<path d="M36.2452 38C33.0141 38 30.354 36.9415 28.265 34.8246C26.1898 32.6938 25.1523 29.985 25.1523 26.6982C25.1523 23.3696 26.169 20.6469 28.2023 18.53C30.2496 16.413 32.8888 15.3546 36.1198 15.3546C39.4763 15.3546 42.1294 16.3782 44.0792 18.4255C46.0429 20.4728 47.0247 23.2443 47.0247 26.74V28.4112L31.503 28.4948C31.6841 29.9014 32.1785 30.9459 32.9863 31.6284C33.794 32.3108 34.9221 32.652 36.3705 32.652C37.61 32.652 38.6406 32.4361 39.4623 32.0044C40.298 31.5727 40.8342 30.9738 41.0709 30.2078H47.1083C46.7183 32.5754 45.5415 34.4695 43.5778 35.89C41.6141 37.2967 39.1699 38 36.2452 38ZM36.1616 20.7026C34.8525 20.7026 33.8288 21.002 33.0907 21.6009C32.3526 22.1997 31.8512 23.1398 31.5866 24.4211H40.486C40.486 23.2791 40.096 22.3738 39.3161 21.7053C38.5362 21.0368 37.4847 20.7026 36.1616 20.7026Z" fill="#1C1B1F"/>
<path d="M54.6707 37.436L47.7768 13.37L54.7125 16.044L56.6762 23.0214C57.2472 25.0269 57.6929 27.0533 58.0132 29.1006C58.2778 27.4572 58.7931 25.4308 59.5591 23.0214L61.7317 16.044H68.5003L70.5058 23.0214C71.2718 25.7094 71.7592 27.7358 71.9681 29.1006C72.1213 28.1118 72.6157 26.0854 73.4513 23.0214L75.5195 16.044L82.4761 13.37L74.9973 37.436H68.8763L66.829 30.6256C65.8541 27.4085 65.2692 25.1035 65.0742 23.7108C64.8235 25.0618 64.1829 27.4154 63.1523 30.7719L61.0841 37.436H54.6707Z" fill="#1C1B1F"/>
<path d="M94.2375 38C91.0064 38 88.3463 36.9415 86.2573 34.8246C84.1822 32.6938 83.1446 29.985 83.1446 26.6982C83.1446 23.3696 84.1613 20.6469 86.1946 18.53C88.2419 16.413 90.8811 15.3546 94.1122 15.3546C97.4686 15.3546 100.122 16.3782 102.071 18.4255C104.035 20.4728 105.017 23.2443 105.017 26.74V28.4112L89.4953 28.4948C89.6764 29.9014 90.1708 30.9459 90.9786 31.6284C91.7863 32.3108 92.9144 32.652 94.3628 32.652C95.6023 32.652 96.6329 32.4361 97.4546 32.0044C98.2903 31.5727 98.8265 30.9738 99.0632 30.2078H105.101C104.711 32.5754 103.534 34.4695 101.57 35.89C99.6064 37.2967 97.1622 38 94.2375 38ZM94.1539 20.7026C92.8448 20.7026 91.8211 21.002 91.083 21.6009C90.3449 22.1997 89.8435 23.1398 89.5789 24.4211H98.4783C98.4783 23.2791 98.0883 22.3738 97.3084 21.7053C96.5285 21.0368 95.477 20.7026 94.1539 20.7026Z" fill="#1C1B1F"/>
<path d="M115.504 37.436H108.924V5.18087L115.504 0V37.436Z" fill="#1C1B1F"/>
<path d="M118.909 30.6674H125.156C125.197 31.4334 125.497 32.0253 126.054 32.4431C126.611 32.8609 127.384 33.0698 128.373 33.0698C129.362 33.0698 130.107 32.9097 130.608 32.5893C131.109 32.2551 131.36 31.8025 131.36 31.2314C131.36 30.3819 130.719 29.8248 129.438 29.5602L125.49 28.7037C123.47 28.258 121.987 27.5547 121.04 26.5937C120.107 25.6188 119.64 24.2122 119.64 22.3738C119.64 20.2012 120.469 18.4882 122.126 17.2347C123.798 15.9813 125.949 15.3546 128.582 15.3546C131.075 15.3546 133.101 16.0231 134.661 17.3601C136.221 18.6832 137.001 20.424 137.001 22.5827H130.754C130.754 21.8446 130.538 21.2597 130.107 20.8279C129.675 20.3823 129.069 20.1594 128.289 20.1594C127.537 20.1594 126.938 20.3335 126.493 20.6817C126.061 21.0299 125.845 21.4964 125.845 22.0814C125.845 23.0005 126.611 23.6273 128.143 23.9615L132.133 24.818C133.957 25.2219 135.315 25.8765 136.207 26.7817C137.112 27.687 137.565 28.9683 137.565 30.6256C137.565 32.8818 136.687 34.6784 134.932 36.0154C133.191 37.3385 130.914 38 128.101 38C125.302 38 123.067 37.3245 121.395 35.9736C119.738 34.6227 118.909 32.854 118.909 30.6674Z" fill="#1C1B1F"/>
</svg>
